<?xml version="1.0" standalone="no"?><svg xmlns="http://www.w3.org/2000/svg" viewBox="0 0 1440 320"><path fill="#FF843D" fill-opacity="1" d="M0,224L15,197.3C30,171,60,117,90,85.3C120,53,150,43,180,53.3C210,64,240,96,270,144C300,192,330,256,360,282.7C390,309,420,299,450,245.3C480,192,510,96,540,53.3C570,11,600,21,630,74.7C660,128,690,224,720,234.7C750,245,780,171,810,122.7C840,75,870,53,900,90.7C930,128,960,224,990,245.3C1020,267,1050,213,1080,202.7C1110,192,1140,224,1170,229.3C1200,235,1230,213,1260,176C1290,139,1320,85,1350,80C1380,75,1410,117,1425,138.7L1440,160L1440,320L1425,320C1410,320,1380,320,1350,320C1320,320,1290,320,1260,320C1230,320,1200,320,1170,320C1140,320,1110,320,1080,320C1050,320,1020,320,990,320C960,320,930,320,900,320C870,320,840,320,810,320C780,320,750,320,720,320C690,320,660,320,630,320C600,320,570,320,540,320C510,320,480,320,450,320C420,320,390,320,360,320C330,320,300,320,270,320C240,320,210,320,180,320C150,320,120,320,90,320C60,320,30,320,15,320L0,320Z"></path></svg>